<svg width="76" height="76" viewBox="0 0 76 76" fill="none" xmlns="http://www.w3.org/2000/svg">
<g clip-path="url(#clip0_1_516)">
<path d="M16.2829 61.0177C19.7418 63.01 24.0505 63.4877 28.9303 63.3549C28.8475 61.8489 29.3566 60.3702 30.3491 59.2344C31.3416 58.0986 32.7387 57.3958 34.2422 57.2761C35.7458 57.1563 37.2365 57.629 38.3963 58.5932C39.5561 59.5575 40.293 60.937 40.4497 62.4371C46.619 61.8361 53.2395 61.2978 59.9321 62.0526C76.9727 63.9747 70.6892 30.7603 58.1413 18.4278C45.5933 6.09541 26.0509 5.63206 14.492 17.3929C2.93315 29.1538 1.10349 52.2746 16.2829 61.0177Z" fill="#F2F3FA"/>
<path d="M40.8064 66.2399C60.2433 66.2399 76 63.8119 76 60.8168C76 57.8217 60.2433 55.3936 40.8064 55.3936C21.3695 55.3936 5.61279 57.8217 5.61279 60.8168C5.61279 63.8119 21.3695 66.2399 40.8064 66.2399Z" fill="#3F3D56"/>
<path d="M39.3273 44.9645C39.3273 44.9645 33.0319 44.206 32.2734 45.5713C31.5149 46.9365 32.0458 48.0742 33.0319 48.7569C34.0179 49.4395 39.479 52.5493 39.479 52.5493L39.9341 53.3078L40.9201 53.1561L41.9061 52.2459L41.451 51.4116C41.451 51.4116 37.6586 49.1361 37.5828 48.5293C37.5828 48.5293 41.0718 50.1222 41.451 49.8188C41.8303 49.5154 46.0778 48.0742 45.3951 47.2399C44.7125 46.4056 42.968 45.192 42.968 45.192L39.3273 44.9645Z" fill="#2F2E41"/>
<path opacity="0.1" d="M39.3273 44.9645C39.3273 44.9645 33.0319 44.206 32.2734 45.5713C31.5149 46.9365 32.0458 48.0742 33.0319 48.7569C34.0179 49.4395 39.479 52.5493 39.479 52.5493L39.9341 53.3078L40.9201 53.1561L41.9061 52.2459L41.451 51.4116C41.451 51.4116 37.6586 49.1361 37.5828 48.5293C37.5828 48.5293 41.0718 50.1222 41.451 49.8188C41.8303 49.5154 46.0778 48.0742 45.3951 47.2399C44.7125 46.4056 42.968 45.192 42.968 45.192L39.3273 44.9645Z" fill="black"/>
<path d="M40.1616 52.6252C40.1616 52.6252 39.0239 52.3976 39.2514 53.1561C39.479 53.9146 39.6307 55.4315 39.2514 55.8108C38.8722 56.19 37.6586 57.8587 38.8722 58.0104C40.0858 58.1621 41.3752 56.6451 41.3752 56.6451C41.3752 56.6451 42.2095 54.218 42.8163 53.9904C43.4231 53.7629 44.0299 52.8527 43.7265 52.6252C43.4231 52.3976 41.6027 50.9565 41.451 51.0323C41.2993 51.1082 41.3752 51.9425 41.3752 51.9425C41.3752 51.9425 40.7684 52.9285 40.1616 52.6252Z" fill="#2F2E41"/>
<path d="M49.9839 49.7808H39.8961V58.0483H49.9839V49.7808Z" fill="#FF8733"/>
<path d="M0 36.9609V38.8064L9.12349 49.705H10.6684L0 36.9609Z" fill="#FF8733"/>
<path d="M0 22.8913V24.7368L20.9016 49.705H22.4465L0 22.8913Z" fill="#FF8733"/>
<path d="M32.9055 63.839L34.5272 64.72L63.4471 58.8788L64.1846 57.5214L32.9055 63.839Z" fill="#FF8733"/>
<path d="M0 27.5811V29.4266L16.9755 49.705H18.5205L0 27.5811Z" fill="#FF8733"/>
<path d="M29.2775 22.1916V20.4276H27.8008L29.2775 22.1916Z" fill="#FF8733"/>
<path d="M0 46.3406V48.1861L1.27152 49.705H2.8164L0 46.3406Z" fill="#FF8733"/>
<path d="M16.7436 61.6521L18.425 62.4128L26.2243 60.237L26.8611 58.8294L16.7436 61.6521Z" fill="#FF8733"/>
<path d="M0 43.9957V45.8412L3.23448 49.705H4.77943L0 43.9957Z" fill="#FF8733"/>
<path d="M0 39.3058V41.1513L7.16054 49.705H8.70541L0 39.3058Z" fill="#FF8733"/>
<path d="M0 29.9261V31.7716L15.0126 49.705H16.5575L0 29.9261Z" fill="#FF8733"/>
<path d="M17.5675 20.4276H16.0226L29.2774 36.2612V34.4157L17.5675 20.4276Z" fill="#FF8733"/>
<path d="M21.4936 20.4276H19.9488L29.2775 31.5713V29.7258L21.4936 20.4276Z" fill="#FF8733"/>
<path d="M25.4196 20.4276H23.8746L29.2774 26.8814V25.0359L25.4196 20.4276Z" fill="#FF8733"/>
<path d="M1.86354 20.4276H0.318665L24.8276 49.705H26.3725L1.86354 20.4276Z" fill="#FF8733"/>
<path d="M3.82657 20.4276H2.28162L26.7906 49.705H28.3355L3.82657 20.4276Z" fill="#FF8733"/>
<path d="M7.75249 20.4276H6.20761L29.2774 47.9858V46.1404L7.75249 20.4276Z" fill="#FF8733"/>
<path d="M11.6786 20.4276H10.1336L29.2774 43.296V41.4505L11.6786 20.4276Z" fill="#FF8733"/>
<path d="M13.6416 20.4276H12.0967L29.2775 40.951V39.1056L13.6416 20.4276Z" fill="#FF8733"/>
<path d="M40.846 29.761C40.846 29.761 40.9337 30.0535 40.4365 30.3167C39.9393 30.58 39.7931 31.5744 40.378 31.8669C40.963 32.1594 41.1385 32.5396 40.846 32.8028C40.5535 33.0661 40.027 33.768 40.729 33.9435C41.431 34.119 41.5187 34.47 41.314 34.6162C41.1092 34.7625 41.7819 34.353 41.7819 34.353C41.7819 34.353 41.8989 35.055 42.5132 34.8795C43.1274 34.704 44.853 31.3697 43.9756 30.9017C43.0981 30.4337 40.846 29.761 40.846 29.761Z" fill="#2F2E41"/>
<path d="M40.048 36.4315L37.2416 38.4036C37.2416 38.4036 35.1178 36.204 35.1178 34.9146C35.1178 33.6251 33.9801 31.198 33.4492 32.184C32.9182 33.1701 34.0559 35.5214 34.0559 35.5214L36.1797 40.5273C36.1797 40.5273 37.3933 40.7549 38.0759 40.2239C38.7585 39.693 40.6547 38.6311 40.6547 38.6311L40.048 36.4315Z" fill="#FFB9B9"/>
<path d="M42.8163 33.1321C43.9893 33.1321 44.9401 32.1813 44.9401 31.0084C44.9401 29.8354 43.9893 28.8846 42.8163 28.8846C41.6434 28.8846 40.6926 29.8354 40.6926 31.0084C40.6926 32.1813 41.6434 33.1321 42.8163 33.1321Z" fill="#FFB9B9"/>
<path d="M41.7165 32.4874C41.7165 32.4874 42.475 34.4595 42.1716 34.9146C41.8682 35.3697 41.489 35.3697 41.1856 35.5213C41.0339 35.5972 39.4411 36.204 39.4411 36.6591C39.4484 36.9515 39.5265 37.2378 39.6686 37.4934L39.8962 38.7828L41.7924 39.9964L44.2954 39.693L46.1916 38.6311C46.1916 38.6311 46.495 35.8247 45.6606 35.3697C44.8263 34.9146 43.8403 33.8527 43.9161 33.4734C43.992 33.0942 44.0678 32.184 44.0678 32.184L41.7165 32.4874Z" fill="#FFB9B9"/>
<path d="M38.531 37.19C38.531 37.19 39.6687 38.3277 39.6687 38.4794C39.6687 38.6311 38.9102 39.3138 39.4412 40.2239C39.9721 41.1341 39.9721 43.4096 39.9721 43.4096L41.7925 43.7888L45.2056 43.4854L45.7366 38.2519C45.7366 38.2519 44.3713 38.4794 44.0679 38.707C43.7645 38.9345 42.9302 38.4036 42.3234 38.4036C41.7166 38.4036 39.9721 38.1002 39.9721 38.1002L40.1238 37.4934L39.517 36.4315L38.531 37.19Z" fill="#FF6584"/>
<path d="M42.8164 45.2678C42.8164 45.2678 35.1558 41.8547 34.549 44.0543C33.9422 46.2539 33.8663 51.5633 33.8663 51.5633C33.8663 51.5633 33.4871 55.204 33.032 55.5832C32.5769 55.9625 33.032 57.1002 33.032 57.1002L34.1697 57.4794L35.2316 57.0243L35.6867 55.8108C35.6867 55.8108 35.8384 53.0802 36.4452 51.715C37.052 50.3497 37.052 47.1641 36.9761 47.0124C36.9761 47.0124 39.9342 50.6531 42.8164 50.4255C45.6987 50.198 46.1158 49.5533 46.1158 49.5533C46.1158 49.5533 44.7126 45.2678 42.8164 45.2678Z" fill="#2F2E41"/>
<path d="M33.487 55.9625C33.487 55.9625 33.1836 54.9006 32.501 55.7349C31.8184 56.5692 28.7086 57.8587 28.6327 58.0104C28.5569 58.1621 27.1916 58.9964 28.7844 60.1341C30.3772 61.2718 32.501 60.1341 32.501 60.1341C32.501 60.1341 34.3214 59.5273 34.7764 59.6032C35.2315 59.679 36.1417 59.2239 36.2176 58.8447C36.2934 58.4655 36.1142 55.1315 35.7108 55.4711C35.3074 55.8108 34.8523 56.7209 34.8523 56.7209C34.8523 56.7209 33.3353 57.1002 33.487 55.9625Z" fill="#2F2E41"/>
<path d="M40.2376 43.2199C40.2376 43.2199 39.8204 43.182 39.8962 44.168C39.8962 44.168 42.513 44.9644 42.9681 45.6471C43.4232 46.3297 45.3952 48.3776 45.6986 49.8187C45.6986 49.8187 47.8982 49.2878 46.6847 45.4954L45.2578 42.4019C45.2578 42.4019 44.4092 44.1301 40.2376 43.2199Z" fill="#2F2E41"/>
<path d="M42.0229 45.0634L44.5989 43.9405C44.5989 43.9405 45.8125 41.4375 45.8125 40.2239C45.8272 39.5256 45.881 38.8287 45.9736 38.1364C46.031 37.701 45.981 37.2582 45.8281 36.8465C45.6752 36.4348 45.424 36.0667 45.0964 35.7742C44.8285 35.54 44.5278 35.3696 44.2196 35.3696C44.2196 35.3696 43.3095 37.0383 43.4612 38.5553C43.6129 40.0722 43.2336 42.3477 43.2336 42.3477L39.8063 44.182" fill="#FFB9B9"/>
<path opacity="0.1" d="M42.0229 45.0634L44.5989 43.9405C44.5989 43.9405 45.8125 41.4375 45.8125 40.2239C45.8125 39.5918 43.1578 37.7209 43.3095 39.2379C43.4612 40.7549 43.2336 42.3477 43.2336 42.3477L39.8063 44.182" fill="black"/>
<path d="M43.2335 39.0862L43.4753 40.1102L44.8263 40.7549H45.9641L46.495 38.3277C46.495 38.3277 45.5576 38.1295 45.0782 38.3803C44.5988 38.6311 43.473 38.6912 43.473 38.6912L43.2335 39.0862Z" fill="#FF6584"/>
<path d="M42.8337 28.8768C42.8337 28.8768 42.9309 29.2008 42.3801 29.4924C41.8293 29.784 41.6673 30.8857 42.3153 31.2097C42.9633 31.5337 43.1577 31.9549 42.8337 32.2465C42.5097 32.5381 41.9265 33.3158 42.7041 33.5102C43.4818 33.7046 43.579 34.0934 43.3522 34.2554C43.1253 34.4174 43.8706 33.9638 43.8706 33.9638C43.8706 33.9638 44.0002 34.7414 44.6806 34.547C45.361 34.3526 46.0399 30.8187 45.2814 29.9086C44.5762 29.0622 42.8337 28.8768 42.8337 28.8768Z" fill="#2F2E41"/>
<path d="M42.6268 28.5433C42.6269 28.0686 45.5773 28.5897 46.1862 29.2525C46.6078 29.7115 47.2483 30.402 46.7116 30.8887C46.1749 31.3754 46.1013 31.8335 46.4919 32.0269C46.8826 32.2204 47.6539 32.812 46.9575 33.2088C46.261 33.6057 46.2723 34.0063 46.5344 34.1012C46.7964 34.196 45.9565 33.9601 45.9565 33.9601C45.9565 33.9601 46.0414 34.7439 45.3337 34.7402C44.6261 34.7364 42.5959 30.8474 43.0809 29.7664C43.5319 28.7613 42.6268 28.5433 42.6268 28.5433Z" fill="#2F2E41"/>
<path d="M42.9344 28.4393C41.0352 28.3249 40.8446 29.7545 40.8446 29.7545C40.8577 30.5818 42.1715 30.1787 42.5364 30.302C42.9766 29.9853 43.8252 29.3861 44.432 28.9585C43.9914 28.6483 43.4724 28.4683 42.9344 28.4393Z" fill="#2F2E41"/>
<path d="M27.9317 25.8886H26.3868L33.7526 34.6875V32.8419L27.9317 25.8886Z" fill="#FF8733"/>
<path d="M36.852 59.7579L35.7823 60.8726L59.4351 62.4804L58.1036 61.2025L36.852 59.7579Z" fill="#FF8733"/>
<path d="M60.3029 53.4599C60.3029 55.6801 58.9832 56.4552 57.355 56.4552C57.3173 56.4552 57.2796 56.4547 57.2421 56.4539C57.1667 56.4522 57.0918 56.4487 57.018 56.4436C55.5486 56.3397 54.4071 55.5246 54.4071 53.4599C54.4071 51.3235 57.1371 48.6275 57.3428 48.4275L57.3431 48.4272C57.3509 48.4194 57.355 48.4156 57.355 48.4156C57.355 48.4156 60.3029 51.24 60.3029 53.4599Z" fill="#FF8733"/>
<path d="M57.2475 56.1155L58.3257 54.6092L57.2448 56.2811L57.2421 56.4539C57.1667 56.4523 57.0918 56.4487 57.018 56.4436L57.1341 54.2226L57.1333 54.2052L57.1352 54.2022L57.1463 53.9922L56.0627 52.3163L57.1496 53.8349L57.1523 53.8793L57.2399 52.2013L56.3123 50.4694L57.2513 51.9069L57.3428 48.4275L57.343 48.4156V48.4272L57.3278 51.1708L58.2514 50.0831L57.324 51.4071L57.2996 52.9097L58.1621 51.4676L57.2961 53.1308L57.2825 53.9662L58.5341 51.959L57.2776 54.2576L57.2475 56.1155Z" fill="#3F3D56"/>
</g>
<defs>
<clipPath id="clip0_1_516">
<rect width="76" height="76" fill="white"/>
</clipPath>
</defs>
</svg>
