<svg width="120" height="120" viewBox="0 0 120 120" fill="none" xmlns="http://www.w3.org/2000/svg">
<mask id="mask0_1_736" style="mask-type:alpha" maskUnits="userSpaceOnUse" x="0" y="0" width="120" height="117">
<path d="M60 116.87C93.1371 116.87 120 90.7074 120 58.4348C120 26.1621 93.1371 0 60 0C26.8629 0 0 26.1621 0 58.4348C0 90.7074 26.8629 116.87 60 116.87Z" fill="#F5F8FF"/>
</mask>
<g mask="url(#mask0_1_736)">
<path d="M119.5 58.4348C119.5 90.4189 92.8735 116.37 60 116.37C27.1265 116.37 0.5 90.4189 0.5 58.4348C0.5 26.4507 27.1265 0.5 60 0.5C92.8735 0.5 119.5 26.4507 119.5 58.4348Z" fill="#F2F3FA" stroke="#EFD8CB"/>
<path d="M69.9149 88.6956C78.793 88.6956 85.9848 81.6915 85.9848 73.0598C85.9848 72.5854 85.951 72.1176 85.9103 71.6563C91.4769 69.1986 95.3572 63.756 95.3572 57.4173C95.3572 51.7046 92.2015 46.7299 87.5085 43.9954C88.1451 42.3086 88.5176 40.4966 88.5176 38.5924C88.5176 29.9541 81.3189 22.9565 72.4477 22.9565C67.7276 22.9565 63.4816 24.9398 60.5358 28.0894C57.5968 24.9332 53.3507 22.9565 48.6239 22.9565C39.7459 22.9565 32.554 29.9607 32.554 38.5924C32.554 40.4966 32.9197 42.3086 33.5631 43.9954C28.8633 46.7233 25.7144 51.7046 25.7144 57.4173C25.7144 63.756 29.5947 69.1986 35.1613 71.6563C35.1206 72.1176 35.0867 72.5854 35.0867 73.0598C35.0867 81.6981 42.2854 88.6956 51.1566 88.6956H69.9149Z" fill="#793708"/>
<path d="M100.714 110.12C100.714 123.293 20.3572 123.293 20.3572 110.12C20.3572 96.9474 52.0629 91.8261 60.5357 91.8261C69.0086 91.8261 100.714 96.9474 100.714 110.12Z" fill="#CFE1FF"/>
<path d="M53.5781 75.1304H67.5001V91.0829C67.5001 94.9454 64.3829 98.087 60.5358 98.087C56.6953 98.087 53.5715 94.952 53.5715 91.0829V75.1304H53.5781Z" fill="#FFE9DA"/>
<path d="M67.5001 87.3629V81.3913H53.5715V87.3629C55.723 88.2234 58.0784 88.6956 60.5391 88.6956C62.9998 88.6956 65.3486 88.2234 67.5001 87.3629Z" fill="#EAA474"/>
<path d="M60.539 32.3478H60.5323C50.1788 32.3478 41.7856 40.7071 41.7856 51.0187V65.8509C41.7856 76.1625 50.1788 84.5218 60.5323 84.5218H60.539C70.8925 84.5218 79.2856 76.1625 79.2856 65.8509V51.0187C79.2856 40.7071 70.8925 32.3478 60.539 32.3478Z" fill="#FFE9DA"/>
<path d="M39.6428 68.8696C42.6015 68.8696 44.9999 66.5337 44.9999 63.6522C44.9999 60.7707 42.6015 58.4348 39.6428 58.4348C36.6841 58.4348 34.2856 60.7707 34.2856 63.6522C34.2856 66.5337 36.6841 68.8696 39.6428 68.8696Z" fill="#FFE9DA"/>
<path d="M35.6863 63.6522C35.502 63.6522 35.3572 63.5111 35.3572 63.3316C35.3572 61.2094 37.1347 59.4783 39.3137 59.4783C39.4981 59.4783 39.6429 59.6193 39.6429 59.7988C39.6429 59.9784 39.4981 60.1194 39.3137 60.1194C37.4967 60.1194 36.0155 61.562 36.0155 63.3316C36.0155 63.5111 35.8707 63.6522 35.6863 63.6522Z" fill="#793708"/>
<path d="M81.4287 68.8696C84.3874 68.8696 86.7858 66.5337 86.7858 63.6522C86.7858 60.7707 84.3874 58.4348 81.4287 58.4348C78.47 58.4348 76.0715 60.7707 76.0715 63.6522C76.0715 66.5337 78.47 68.8696 81.4287 68.8696Z" fill="#FFE9DA"/>
<path d="M85.385 63.6522C85.2007 63.6522 85.0559 63.5111 85.0559 63.3316C85.0559 61.562 83.5746 60.1194 81.7576 60.1194C81.5733 60.1194 81.4285 59.9784 81.4285 59.7988C81.4285 59.6193 81.5733 59.4783 81.7576 59.4783C83.9367 59.4783 85.7142 61.2094 85.7142 63.3316C85.7142 63.5111 85.5693 63.6522 85.385 63.6522Z" fill="#793708"/>
<path d="M39.6428 51.1137C40.4904 51.3485 41.3783 51.4693 42.2998 51.4693C46.8336 51.4693 50.661 48.4496 51.8718 44.316C53.1499 44.9132 54.5759 45.2554 56.0759 45.2554C58.1006 45.2554 59.9908 44.6515 61.5648 43.6114C62.3182 49.6105 67.4439 54.2609 73.666 54.2609H81.4285V50.0601C81.4285 38.5517 72.0718 29.2174 60.5357 29.2174C48.9995 29.2174 39.6428 38.5517 39.6428 50.0601V51.1204V51.1137Z" fill="#793708"/>
</g>
</svg>
