<svg width="25" height="24" viewBox="0 0 25 24" fill="none" xmlns="http://www.w3.org/2000/svg">
<path d="M8.68997 9.7825H2.66997C2.17997 9.7825 1.97997 10.4025 2.37997 10.6925L7.28997 14.2025L5.39997 20.3025C5.25997 20.7625 5.78997 21.1425 6.17997 20.8525L11.11 17.0925L16.04 20.8425C16.43 21.1325 16.96 20.7625 16.82 20.2925L14.93 14.1925L19.84 10.6825C20.24 10.4025 20.04 9.7725 19.55 9.7725H13.53L11.58 3.3525C11.44 2.8825 10.77 2.8825 10.62 3.3525L8.68997 9.7825ZM21.01 20.2925L19.61 15.7725L22.52 13.6925C22.92 13.4125 22.72 12.7825 22.23 12.7825H20.35L17.27 14.9825L18.73 19.7025L20.23 20.8425C20.62 21.1325 21.15 20.7525 21.01 20.2925ZM17.11 7.7825L15.77 3.3625C15.63 2.8925 14.96 2.8925 14.81 3.3625L14.24 5.2325L15.02 7.7825H17.11Z" fill="#AE978A"/>
</svg>
