<svg width="25" height="24" viewBox="0 0 25 24" fill="none" xmlns="http://www.w3.org/2000/svg">
<path d="M5.4075 12.9V15.71C5.4075 16.44 5.8075 17.12 6.4475 17.47L11.4475 20.2C12.0475 20.53 12.7675 20.53 13.3675 20.2L18.3675 17.47C19.0075 17.12 19.4075 16.44 19.4075 15.71V12.9L13.3675 16.2C12.7675 16.53 12.0475 16.53 11.4475 16.2L5.4075 12.9ZM11.4475 3.24L3.0175 7.84C2.3275 8.22 2.3275 9.22 3.0175 9.6L11.4475 14.2C12.0475 14.53 12.7675 14.53 13.3675 14.2L21.4075 9.81V15.72C21.4075 16.27 21.8575 16.72 22.4075 16.72C22.9575 16.72 23.4075 16.27 23.4075 15.72V9.31C23.4075 8.94 23.2075 8.61 22.8875 8.43L13.3675 3.24C12.7675 2.92 12.0475 2.92 11.4475 3.24Z" fill="#FF8733"/>
</svg>
